<?xml version="1.0" encoding="UTF-8"?>
<svg version="1.1" viewBox="175 529 1698 986" xmlns="http://www.w3.org/2000/svg">
<path transform="translate(975,589)" d="m0 0h838v866l-1 1h-838v-866z"></path>
<path transform="translate(1098,713)" d="m0 0h592l1 1v245l-1 1h-61v124h61l1 1v246l-1 1h-590l-2-5z" fill="#fff"></path>
<path transform="translate(481,712)" d="m0 0h154l31 1v124l-62 1v493l-1 1h-123v-619z"></path>
<path transform="translate(331,712)" d="m0 0h74l13 1v124h-61v494l-1 1h-121v-619z"></path>
<path transform="translate(749,712)" d="m0 0h88l14 1v619h-124v-619z"></path>
<path transform="translate(1222,836)" d="m0 0h345l1 124-2 1h-344z"></path>
<path transform="translate(1518,1083)" d="m0 0h49v125h-345v-124z"></path>
</svg>