<?xml version="1.0" encoding="UTF-8"?>
<svg version="1.1" viewBox="0 0 2047 2048" width="2391" height="2392" xmlns="http://www.w3.org/2000/svg">

<path transform="translate(0)" d="m0 0h1114v78l-1 1h-195v196h196v197h196v196h-196v196l-1 1h-195v-196h-196v196h-196v196h194l1 1v195h-196v-196h-196v197h196v196h-196v196l-1 1h-195v-196h-133z" fill="none"></path>
<path transform="translate(1703,1061)" d="m0 0h196v196h148v791h-1325v-5h196v-196h196v-196h196v-197h197v-197h196z" fill="none"></path>
<path transform="translate(329,1454)" d="m0 0h196v197h-196v196h196v196h196v-196h-195v-196h196v-196h196v196l195-1 1-196h196v197h-196v196h-196v196h-196v5h-722v-593h133v196l195-1z" fill="#919497"></path>
<path transform="translate(525)" d="m0 0h589v78l-1 1h-195v196h196v197h196v196h-196v196l-1 1h-195v-196h-196v196h-196v196h194l1 1v195h-196v-196h-196v-196h196v-197h197v-197l7-8 41-41 1-96 7 6 89 89 2 1v-99l47-47-194-1v-196h-197z" fill="none"></path>
<path transform="translate(1507,669)" d="m0 0h196v196h196v-196h148v588h-148v-196h-196v196h-196v197h-197v-196h-196v-197h196v196h196v-196h-195v-196h196z" fill="none"></path>
<path transform="translate(0)" d="m0 0h525v79h197v196h195l-6 7-41 41-1 99-4-2-93-93-1 95-47 47-1 2-1 197h-197v-196h-196v-197h-196v196h-133z" fill="#919497"></path>
<path transform="translate(918,1061)" d="m0 0h196v197h196v196h-196v196l-1 1h-195v-196h-196v196h-196v196h195v196h-196v-196h-196v-196h196v-197h197v-197h196z" fill="none"></path>
<path transform="translate(1114,668)" d="m0 0h196v197h-196v196h-196v196h-196v197h-197v-196h-196v-197h196v196h196l-1-195-194-1v-196h196v-196h196v196l195-1z" fill="none"></path>
<path transform="translate(1114)" d="m0 0h196v79h197v196h195v2l-8 7-4 5-8 7-5 5-4 5-10 10-5 4-3 4-1 98-4-2-93-93-1 95-7 8-41 41-1 197h-197v-196h-196v-197h-196v-196l195-1z" fill="#919497"></path>
<path transform="translate(1703,1061)" d="m0 0h196v196h148v198h-148v195l-1 1h-195v-196h-196v196h-196v196h195v196h-196v-589h197v-197h196z" fill="none"></path>
<path transform="translate(329,1454)" d="m0 0h196v197h-196v393h196v4h-525v-593h133v196l195-1z" fill="#919497"></path>
<path transform="translate(1507,1455)" d="m0 0h196v196l195-1 1-195h148v196h-148v196h-196v196h-196z" fill="none"></path>
<path transform="translate(133,275)" d="m0 0h196v197h196v196h-196v196l-1 1h-195v-196h-133v-198h133z" fill="none"></path>
<path transform="translate(0)" d="m0 0h525v275h-392v196h-133z" fill="#919497"></path>
<path transform="translate(329,668)" d="m0 0h196v197h-196v196l-196 1-48 48-1 98-4-2-80-80v-457h133v196l195-1z" fill="#919497"></path>
<path transform="translate(526,865)" d="m0 0h196v589h-197v-196h-196v-197h196v196h196l-1-195-194-1z" fill="#919497"></path>
<path transform="translate(1311,865)" d="m0 0h196v589h-197v-196h-196v-197h196v196h196v-196h-195z" fill="#919497"></path>
<path transform="translate(525,1454)" d="m0 0h197v197h-196v196h195v196h-196v-196h-196v-196h196z" fill="none"></path>
<path transform="translate(1310,668)" d="m0 0h197v197h-196v196h195v196h-196v-196h-196v-196h196z" fill="none"></path>
<path transform="translate(525,668)" d="m0 0h197v197h-196v196h194l1 1v195h-196v-196h-196v-196h196z" fill="none"></path>
<path transform="translate(1507,669)" d="m0 0h196v588h-196z" fill="none"></path>
<path transform="translate(1899)" d="m0 0h148v471h-148v-196h-196v-196h196z" fill="none"></path>
<path transform="translate(525)" d="m0 0h589v78l-1 1h-195v392h-195l2-4 45-45 1-96 7 6 89 89 2 1v-99l47-47-194-1v-196h-197z" fill="none"></path>
<path transform="translate(1310)" d="m0 0h589v79h-196v392h-195l6-7 40-40 1-2 1-96 7 6 89 89 2 1v-98l5-6 10-10 5-4 5-5 4-5 8-7 4-5 5-5h2v-2h-195v-196h-197z" fill="none"></path>
<path transform="translate(1899,1651)" d="m0 0h148v397h-540v-5h196v-196h196z" fill="none"></path>
<path transform="translate(1114,1454)" d="m0 0h196v197h-196v196l-196 1-48 48-1 98-4-2-93-93-1 95-48 48h-1v-195l195-1 1-195 195-1z" fill="#919497"></path>
<path transform="translate(0,1455)" d="m0 0h133v196h195l-6 7-56 56-7-6-27-27-4 2-65 65 137 1-6 7-62 62-4-2-31-31-7 6-105 105-1 98-4-2-80-80z" fill="#919497"></path>
<path transform="translate(1310,1454)" d="m0 0h197v197h-196v196h195v196h-196z" fill="none"></path>
<path transform="translate(1114,668)" d="m0 0h196v197h-196v196h-196v-196l195-1z" fill="#919497"></path>
<path transform="translate(918,1258)" d="m0 0h392v196h-392z" fill="none"></path>
<path transform="translate(133,1258)" d="m0 0h392v196h-392z" fill="none"></path>
<path transform="translate(918,472)" d="m0 0h392v196h-392z" fill="none"></path>
<path transform="translate(133,472)" d="m0 0h392v196h-392z" fill="none"></path>
<path transform="translate(722,1455)" d="m0 0h196v391l-1 1h-195z" fill="none"></path>
<path transform="translate(1703,1258)" d="m0 0h344v197h-148l-196-1z" fill="#919497"></path>
<path transform="translate(1703,472)" d="m0 0h344v197h-148l-196-1z" fill="#919497"></path>
<path transform="translate(1899,1455)" d="m0 0h148v196h-148v196h-196v-196l195-1z" fill="#919497"></path>
<path transform="translate(329,668)" d="m0 0h196v197h-196v196h-195l6-7 56-56 7 6 27 27 4-2 65-65-137-1 6-7 62-62 4 2 31 31 7-6 55-55 1-2z" fill="#919497"></path>
<path transform="translate(133,1847)" d="m0 0h196v197h196v4h-525v-136l7 6 75 75 2 1v-98z" fill="none"></path>
<path transform="translate(1114)" d="m0 0h196v79h-196v196h-196v-196l195-1z" fill="#919497"></path>
<path transform="translate(525)" d="m0 0h589v78l-1 1h-588z" fill="#919497"></path>
<path transform="translate(918,1847)" d="m0 0h196v197h196v4h-588v-5h196z" fill="none"></path>
<path transform="translate(1703,668)" d="m0 0h196v197h-196z" fill="none"></path>
<path transform="translate(1703,1454)" d="m0 0h196v196l-1 1h-195z" fill="none"></path>
<path transform="translate(918,1454)" d="m0 0h196v196l-1 1h-195z" fill="none"></path>
<path transform="translate(133,1454)" d="m0 0h196v196l-1 1h-195z" fill="none"></path>
<path transform="translate(918,668)" d="m0 0h196v196l-1 1h-195z" fill="none"></path>
<path transform="translate(133,668)" d="m0 0h196v196l-1 1h-195z" fill="none"></path>
<path transform="translate(1310,1847)" d="m0 0h196v196h-196z" fill="none"></path>
<path transform="translate(525,1847)" d="m0 0h196v196h-196z" fill="none"></path>
<path transform="translate(329,1651)" d="m0 0h196v196h-196z" fill="none"></path>
<path transform="translate(918,1258)" d="m0 0h196v196h-196z" fill="#919497"></path>
<path transform="translate(133,1258)" d="m0 0h196v196h-196z" fill="#919497"></path>
<path transform="translate(1310,1061)" d="m0 0h196v196h-196z" fill="none"></path>
<path transform="translate(1703,865)" d="m0 0h196v196h-196z" fill="#919497"></path>
<path transform="translate(1114,865)" d="m0 0h196v196h-196z" fill="none"></path>
<path transform="translate(329,865)" d="m0 0h196v196h-196z" fill="none"></path>
<path transform="translate(918,472)" d="m0 0h196v196h-196z" fill="#919497"></path>
<path transform="translate(133,472)" d="m0 0h196v196h-196z" fill="#919497"></path>
<path transform="translate(1703,79)" d="m0 0h196v196h-196z" fill="#919497"></path>
<path transform="translate(1114,79)" d="m0 0h196v196h-196z" fill="none"></path>
<path transform="translate(329,79)" d="m0 0h196v196h-196z" fill="none"></path>
<path transform="translate(525,1061)" d="m0 0h195l1 1v195h-196z" fill="none"></path>
<path transform="translate(1311,1651)" d="m0 0h195v196h-195z" fill="#0a0a0a"></path>
<path transform="translate(526,1651)" d="m0 0h195v196h-195z" fill="#0a0a0a"></path>
<path transform="translate(1311,865)" d="m0 0h195v196h-195z" fill="#0a0a0a"></path>
<path transform="translate(526,865)" d="m0 0h195v196h-195z" fill="#0a0a0a"></path>
<path transform="translate(1310,276)" d="m0 0h196v195h-196z" fill="none"></path>
<path transform="translate(525,276)" d="m0 0h196v195h-196z" fill="none"></path>
<path transform="translate(1311,79)" d="m0 0h195v196h-195z" fill="#0a0a0a"></path>
<path transform="translate(526,79)" d="m0 0h195v196h-195z" fill="#0a0a0a"></path>
<path transform="translate(1899,1258)" d="m0 0h148v197h-148z" fill="none"></path>
<path transform="translate(1899,472)" d="m0 0h148v197h-148z" fill="none"></path>
<path transform="translate(1899,1651)" d="m0 0h148v196h-148z" fill="none"></path>
<path transform="translate(0,1651)" d="m0 0h132v196h-132z" fill="none"></path>
<path transform="translate(0,865)" d="m0 0h132v196h-132z" fill="none"></path>
<path transform="translate(0,79)" d="m0 0h132v196h-132z" fill="none"></path>
<path transform="translate(1114,1455)" d="m0 0h195l-6 7-40 40-1 2-1 98-99 1-47 47h-1z" fill="#0a0a0a"></path>
<path transform="translate(1114,669)" d="m0 0h195l-6 7-40 40-1 2-1 98-99 1-47 47h-1z" fill="#0a0a0a"></path>
<path transform="translate(1114,1848)" d="m0 0 7 6 41 41 99 1 1 99 47 47v1h-195z" fill="#0a0a0a"></path>
<path transform="translate(329,1848)" d="m0 0 7 6 41 41 99 1 1 99 47 47v1h-195z" fill="#0a0a0a"></path>
<path transform="translate(329,1455)" d="m0 0h195l-6 7-41 41-1 99-99 1-47 47h-1z" fill="#0a0a0a"></path>
<path transform="translate(1311,1258)" d="m0 0h195v195l-7-6-41-41-99-1-1-99-47-47z" fill="#0a0a0a"></path>
<path transform="translate(526,1258)" d="m0 0h195v195l-7-6-41-41-99-1-1-99-47-47z" fill="#0a0a0a"></path>
<path transform="translate(1114,1062)" d="m0 0 7 6 41 41 99 1 1 99 47 47v1h-195z" fill="#0a0a0a"></path>
<path transform="translate(329,1062)" d="m0 0 7 6 41 41 99 1 1 99 47 47v1h-195z" fill="#0a0a0a"></path>
<path transform="translate(329,669)" d="m0 0h195l-6 7-41 41-1 99-99 1-47 47h-1z" fill="#0a0a0a"></path>
<path transform="translate(1311,472)" d="m0 0h195v195l-7-6-41-41-99-1-1-99-47-47z" fill="#0a0a0a"></path>
<path transform="translate(526,472)" d="m0 0h195v195l-7-6-41-41-99-1-1-99-47-47z" fill="#0a0a0a"></path>
<path transform="translate(1114,276)" d="m0 0 7 6 41 41 99 1 1 99 47 47v1h-195z" fill="#0a0a0a"></path>
<path transform="translate(329,276)" d="m0 0 7 6 41 41 99 1 1 99 47 47v1h-195z" fill="#0a0a0a"></path>
<path transform="translate(1899,1455)" d="m0 0h148v49l-1 98-99 1-47 47h-1z" fill="#0a0a0a"></path>
<path transform="translate(1899,669)" d="m0 0h148v49l-1 98-99 1-47 47h-1z" fill="#0a0a0a"></path>
<path transform="translate(1899,1848)" d="m0 0 7 6 41 41 99 1 1 99v48h-148z" fill="#0a0a0a"></path>
<path transform="translate(1507,275)" d="m0 0h195v2l-8 7-4 5-8 7-5 5-4 5-10 10-5 4-3 4-1 98-4-2-93-93-1 95-7 8-41 41h-1z" fill="#0a0a0a"></path>
<path transform="translate(1507,1061)" d="m0 0h195v2l-8 7-39 39-1 99-4-2-93-93-1 95-42 42-6 7h-1z" fill="#0a0a0a"></path>
<path transform="translate(1507,1847)" d="m0 0h195v2l-8 7-39 39-1 99-4-2-93-93-1 95-49 49z" fill="#0a0a0a"></path>
<path transform="translate(722,1061)" d="m0 0h195l-6 7-41 41-1 99-4-2-93-93-1 95-49 49z" fill="#0a0a0a"></path>
<path transform="translate(722,275)" d="m0 0h195l-6 7-41 41-1 99-4-2-93-93-1 95-49 49z" fill="#0a0a0a"></path>
<path transform="translate(722,1847)" d="m0 0h195l-6 7-41 41-1 99-4-2-93-93-1 95-48 48h-1z" fill="#0a0a0a"></path>
<path transform="translate(1507,1455)" d="m0 0h196v195l-4-2-45-45-1-98-96 96h-2l-1-98-47-47z" fill="#0a0a0a"></path>
<path transform="translate(722,1455)" d="m0 0h196v195l-4-2-45-45-1-98-96 96h-2l-1-98-47-47z" fill="#0a0a0a"></path>
<path transform="translate(1507,669)" d="m0 0h196v195l-4-2-45-45-1-98-96 96h-2l-1-98-47-47z" fill="#0a0a0a"></path>
<path transform="translate(722,669)" d="m0 0h196v195l-4-2-45-45-1-98-96 96h-2l-1-98-47-47z" fill="#0a0a0a"></path>
<path transform="translate(1703,79)" d="m0 0h195l-6 7-56 56-7-6-27-27-4 2-65 65 137 1-6 7-62 62-4-2-31-31-4 2-6 7-5 4-7 8-5 5-6 5-7 8-5 5-5 4-7 8-5 5-2 1z" fill="#0a0a0a"></path>
<path transform="translate(1703,1651)" d="m0 0h195l-6 7-56 56-7-6-27-27-4 2-65 65 137 1-6 7-62 62-4-2-31-31-4 2-59 59h-1z" fill="#0a0a0a"></path>
<path transform="translate(918,1651)" d="m0 0h195l-6 7-56 56-7-6-27-27-4 2-65 65 137 1-6 7-62 62-4-2-31-31-4 2-59 59h-1z" fill="#0a0a0a"></path>
<path transform="translate(133,1651)" d="m0 0h195l-6 7-56 56-7-6-27-27-4 2-65 65 137 1-6 7-62 62-4-2-31-31-4 2-59 59h-1z" fill="#0a0a0a"></path>
<path transform="translate(1703,865)" d="m0 0h195l-6 7-56 56-7-6-27-27-4 2-65 65 137 1-6 7-62 62-4-2-31-31-4 2-59 59h-1z" fill="#0a0a0a"></path>
<path transform="translate(918,865)" d="m0 0h195l-6 7-56 56-7-6-27-27-4 2-65 65 137 1-6 7-62 62-4-2-31-31-4 2-59 59h-1z" fill="#0a0a0a"></path>
<path transform="translate(133,865)" d="m0 0h195l-6 7-56 56-7-6-27-27-4 2-65 65 137 1-6 7-62 62-4-2-31-31-4 2-59 59h-1z" fill="#0a0a0a"></path>
<path transform="translate(918,79)" d="m0 0h195l-6 7-56 56-7-6-27-27-4 2-65 65 137 1-6 7-62 62-4-2-31-31-4 2-59 59h-1z" fill="#0a0a0a"></path>
<path transform="translate(133,79)" d="m0 0h195l-6 7-56 56-7-6-27-27-4 2-65 65 137 1-6 7-62 62-4-2-31-31-4 2-59 59h-1z" fill="#0a0a0a"></path>
<path transform="translate(1507,1456)" d="m0 0 7 6 41 41v98l8-7 90-90h1l1 99 48 48h-196z" fill="#919497"></path>
<path transform="translate(722,1456)" d="m0 0 7 6 41 41v98l8-7 90-90h1l1 99 48 48h-196z" fill="#919497"></path>
<path transform="translate(1507,670)" d="m0 0 7 6 41 41v98l8-7 90-90h1l1 99 48 48h-196z" fill="#919497"></path>
<path transform="translate(722,670)" d="m0 0 7 6 41 41v98l8-7 90-90h1l1 99 48 48h-196z" fill="#919497"></path>
<path transform="translate(917,1061)" d="m0 0h1v196h-195l2-4 45-45 1-96 7 6 89 89 2 1v-99z" fill="#919497"></path>
<path transform="translate(917,275)" d="m0 0h1v196h-195l2-4 45-45 1-96 7 6 89 89 2 1v-99z" fill="#919497"></path>
<path transform="translate(1702,1847)" d="m0 0h1v196h-195l2-4 45-45 1-96 7 6 89 89 2 1v-99l46-46h2z" fill="#919497"></path>
<path transform="translate(1702,1061)" d="m0 0h1v196h-195l2-4 3-1 2-4 40-40 1-96 7 6 89 89 2 1v-99l46-46h2z" fill="#919497"></path>
<path transform="translate(1702,275)" d="m0 0h1v196h-195l6-7 40-40 1-2 1-96 7 6 89 89 2 1v-98l5-6 10-10 5-4 5-5 4-5 8-7 4-5 5-5h2z" fill="#919497"></path>
<path transform="translate(1899,1062)" d="m0 0 7 6 42 42v98l96-1-95-95v-2h97l1 99v48h-148z" fill="#0a0a0a"></path>
<path transform="translate(1899,276)" d="m0 0 7 6 42 42v98l96-1-95-95v-2h97l1 99v48h-148z" fill="#0a0a0a"></path>
<path transform="translate(0,1455)" d="m0 0h133v195l-4-2-45-45-1-2-1-95-81 81h-1z" fill="#0a0a0a"></path>
<path transform="translate(0,669)" d="m0 0h133v195l-4-2-45-45-1-2-1-95-81 81h-1z" fill="#0a0a0a"></path>
<path transform="translate(1506,1651)" d="m0 0h1v397h-197v-4h-196v-1l194-1-47-47v-99h-99l-48-48v-1h196v196h196z" fill="#919497"></path>
<path transform="translate(132,1848)" d="m0 0h1v195h-133v-131l7 6 75 75 2 1v-98z" fill="#919497"></path>
<path transform="translate(132,1062)" d="m0 0h1v195h-133v-131l7 6 75 75 2 1v-98z" fill="#919497"></path>
<path transform="translate(132,276)" d="m0 0h1v195h-133v-131l7 6 75 75 2 1v-98z" fill="#919497"></path>
<path transform="translate(329,1847)" d="m0 0h196v196h194l2 1v4h-196v-4h-196v-1l194-1-47-47v-99h-99l-48-48z" fill="#919497"></path>
<path transform="translate(1310)" d="m0 0h197v79h-197z" fill="none"></path>
<path transform="translate(525)" d="m0 0h197v79h-197z" fill="none"></path>
<path transform="translate(1114)" d="m0 0h196v79h-197z" fill="#919497"></path>
<path transform="translate(329)" d="m0 0h196v79h-197z" fill="#919497"></path>
<path transform="translate(1703)" d="m0 0h196v79h-196z" fill="none"></path>
<path transform="translate(1507)" d="m0 0h196v79h-196z" fill="#919497"></path>
<path transform="translate(918)" d="m0 0h196v78l-1 1h-195z" fill="none"></path>
<path transform="translate(133)" d="m0 0h196v78l-1 1h-195z" fill="none"></path>
<path transform="translate(1899)" d="m0 0h148v79h-148z" fill="#919497"></path>
<path transform="translate(1899,1061)" d="m0 0h148v148h-1v-99h-97l7 8 89 89v1h-97l-1-98-48-48z" fill="#919497"></path>
<path transform="translate(1899,275)" d="m0 0h148v148h-1v-99h-97l7 8 89 89v1h-97l-1-98-48-48z" fill="#919497"></path>
<path transform="translate(0)" d="m0 0h133v78l-1 1h-132z" fill="#919497"></path>
<path transform="translate(0,1847)" d="m0 0h132l-6 7-41 41-1 99-4-2-80-80z" fill="#0a0a0a"></path>
<path transform="translate(0,1061)" d="m0 0h132l-6 7-41 41-1 99-4-2-80-80z" fill="#0a0a0a"></path>
<path transform="translate(0,275)" d="m0 0h132l-6 7-41 41-1 99-4-2-80-80z" fill="#0a0a0a"></path>
<path transform="translate(575,1896)" d="m0 0h98v98l-1 1h-98v-98z" fill="#919497"></path>
<path transform="translate(575,1110)" d="m0 0h98v98l-1 1h-98v-98z" fill="#919497"></path>
<path transform="translate(1360,324)" d="m0 0h98v98l-1 1h-98v-98z" fill="#919497"></path>
<path transform="translate(575,324)" d="m0 0h98v98l-1 1h-98v-98z" fill="#919497"></path>
<path transform="translate(1752,1503)" d="m0 0h98v99h-98z" fill="#919497"></path>
<path transform="translate(967,1503)" d="m0 0h98v99h-98z" fill="#919497"></path>
<path transform="translate(182,1503)" d="m0 0h98v99h-98z" fill="#919497"></path>
<path transform="translate(1752,717)" d="m0 0h98v99h-98z" fill="#919497"></path>
<path transform="translate(967,717)" d="m0 0h98v99h-98z" fill="#919497"></path>
<path transform="translate(182,717)" d="m0 0h98v99h-98z" fill="#919497"></path>
<path transform="translate(1360,1896)" d="m0 0h98v98h-99v-97z" fill="#919497"></path>
<path transform="translate(1360,1110)" d="m0 0h98v98h-99v-97z" fill="#919497"></path>
<path transform="translate(1359,1700)" d="m0 0h98v98h-98z" fill="#919497"></path>
<path transform="translate(574,1700)" d="m0 0h98v98h-98z" fill="#919497"></path>
<path transform="translate(1752,1307)" d="m0 0h98v98h-98z" fill="none"></path>
<path transform="translate(967,1307)" d="m0 0h98v98h-98z" fill="none"></path>
<path transform="translate(182,1307)" d="m0 0h98v98h-98z" fill="none"></path>
<path transform="translate(1359,914)" d="m0 0h98v98h-98z" fill="#919497"></path>
<path transform="translate(574,914)" d="m0 0h98v98h-98z" fill="#919497"></path>
<path transform="translate(1752,521)" d="m0 0h98v98h-98z" fill="none"></path>
<path transform="translate(967,521)" d="m0 0h98v98h-98z" fill="none"></path>
<path transform="translate(182,521)" d="m0 0h98v98h-98z" fill="none"></path>
<path transform="translate(1359,128)" d="m0 0h98v98h-98z" fill="#919497"></path>
<path transform="translate(574,128)" d="m0 0h98v98h-98z" fill="#919497"></path>
<path transform="translate(1163,1307)" d="m0 0h97l-6 7-41 41 6 7 41 41v2h-96l-1-1z" fill="#0a0a0a"></path>
<path transform="translate(378,1307)" d="m0 0h97l-6 7-41 41 6 7 41 41v2h-96l-1-1z" fill="#0a0a0a"></path>
<path transform="translate(1163,521)" d="m0 0h97l-6 7-41 41 6 7 41 41v2h-96l-1-1z" fill="#0a0a0a"></path>
<path transform="translate(378,521)" d="m0 0h97l-6 7-41 41 6 7 41 41v2h-96l-1-1z" fill="#0a0a0a"></path>
<path transform="translate(1948,1307)" d="m0 0h97l-6 7-41 41 6 7 41 41v2h-96l-1-2z" fill="#0a0a0a"></path>
<path transform="translate(1948,521)" d="m0 0h97l-6 7-41 41 6 7 41 41v2h-96l-1-2z" fill="#0a0a0a"></path>
<path transform="translate(1949,1700)" d="m0 0h97v98h-97l6-7 41-41-2-4-45-45z" fill="#0a0a0a"></path>
<path transform="translate(1556,1700)" d="m0 0h97l-6 7-41 41 2 4 45 45v1h-97z" fill="#0a0a0a"></path>
<path transform="translate(1164,1700)" d="m0 0h97v98h-97l6-7 41-41-2-4-45-45z" fill="#0a0a0a"></path>
<path transform="translate(771,1700)" d="m0 0h97l-6 7-41 41 2 4 45 45v1h-97z" fill="#0a0a0a"></path>
<path transform="translate(379,1700)" d="m0 0h97v98h-97l6-7 41-41-2-4-45-45z" fill="#0a0a0a"></path>
<path transform="translate(1949,914)" d="m0 0h97v98h-97l6-7 41-41-2-4-45-45z" fill="#0a0a0a"></path>
<path transform="translate(1556,914)" d="m0 0h97l-6 7-41 41 2 4 45 45v1h-97z" fill="#0a0a0a"></path>
<path transform="translate(1164,914)" d="m0 0h97v98h-97l6-7 41-41-2-4-45-45z" fill="#0a0a0a"></path>
<path transform="translate(771,914)" d="m0 0h97l-6 7-41 41 2 4 45 45v1h-97z" fill="#0a0a0a"></path>
<path transform="translate(379,914)" d="m0 0h97v98h-97l6-7 41-41-2-4-45-45z" fill="#0a0a0a"></path>
<path transform="translate(1949,128)" d="m0 0h97v98h-97l6-7 41-41-2-4-45-45z" fill="#0a0a0a"></path>
<path transform="translate(1556,128)" d="m0 0h97l-6 7-41 41 2 4 45 45v1h-97z" fill="#0a0a0a"></path>
<path transform="translate(1164,128)" d="m0 0h97v98h-97l6-7 41-41-2-4-45-45z" fill="#0a0a0a"></path>
<path transform="translate(771,128)" d="m0 0h97l-6 7-41 41 2 4 45 45v1h-97z" fill="#0a0a0a"></path>
<path transform="translate(379,128)" d="m0 0h97v98h-97l6-7 41-41-2-4-45-45z" fill="#0a0a0a"></path>
<path transform="translate(1899,1847)" d="m0 0h148v148h-1v-99h-99l-48-48z" fill="#919497"></path>
<path transform="translate(2046,718)" d="m0 0h1v147h-148l6-7 42-42h99z" fill="#919497"></path>
<path transform="translate(0,1700)" d="m0 0h82l-2 4-44 44 2 4 45 45v1h-83z" fill="#0a0a0a"></path>
<path transform="translate(0,914)" d="m0 0h82l-2 4-44 44 2 4 45 45v1h-83z" fill="#0a0a0a"></path>
<path transform="translate(0,128)" d="m0 0h82l-2 4-44 44 2 4 45 45v1h-83z" fill="#0a0a0a"></path>
<path transform="translate(1899)" d="m0 0h147v30l-99 1-45 45-1 2h-2z" fill="#0a0a0a"></path>
<path transform="translate(1114)" d="m0 0h147v30l-99 1-47 47h-1z" fill="#0a0a0a"></path>
<path transform="translate(329)" d="m0 0h147v30l-99 1-47 47h-1z" fill="#0a0a0a"></path>
<path transform="translate(574,1504)" d="m0 0 7 6 91 91v1h-98z" fill="#0a0a0a"></path>
<path transform="translate(574,718)" d="m0 0 7 6 91 91v1h-98z" fill="#0a0a0a"></path>
<path transform="translate(1359,1505)" d="m0 0 4 2 94 94v1h-97l-1-1z" fill="#0a0a0a"></path>
<path transform="translate(1359,719)" d="m0 0 4 2 94 94v1h-97l-1-1z" fill="#0a0a0a"></path>
<path transform="translate(1948,1897)" d="m0 0 7 6 90 90v1h-97z" fill="#919497"></path>
<path transform="translate(1849,1897)" d="m0 0h1v97h-97l6-7z" fill="#0a0a0a"></path>
<path transform="translate(1456,1897)" d="m0 0h1v97h-97l6-7z" fill="#0a0a0a"></path>
<path transform="translate(1163,1897)" d="m0 0 7 6 90 90v1h-97z" fill="#919497"></path>
<path transform="translate(1064,1897)" d="m0 0h1v97h-97l6-7z" fill="#0a0a0a"></path>
<path transform="translate(671,1897)" d="m0 0h1v97h-97l6-7z" fill="#0a0a0a"></path>
<path transform="translate(378,1897)" d="m0 0 7 6 90 90v1h-97z" fill="#919497"></path>
<path transform="translate(279,1897)" d="m0 0h1v97h-97l6-7z" fill="#0a0a0a"></path>
<path transform="translate(1753,1504)" d="m0 0h97v97l-7-6-90-90z" fill="#0a0a0a"></path>
<path transform="translate(968,1504)" d="m0 0h97v97l-7-6-90-90z" fill="#0a0a0a"></path>
<path transform="translate(183,1504)" d="m0 0h97v97l-7-6-90-90z" fill="#0a0a0a"></path>
<path transform="translate(1556,1307)" d="m0 0h97l-6 7-90 90h-1z" fill="#0a0a0a"></path>
<path transform="translate(1360,1307)" d="m0 0h97v97l-7-6-90-90z" fill="#919497"></path>
<path transform="translate(771,1307)" d="m0 0h97l-6 7-90 90h-1z" fill="#0a0a0a"></path>
<path transform="translate(575,1307)" d="m0 0h97v97l-7-6-90-90z" fill="#919497"></path>
<path transform="translate(1849,1111)" d="m0 0h1v97h-97l6-7z" fill="#0a0a0a"></path>
<path transform="translate(1456,1111)" d="m0 0h1v97h-97l6-7z" fill="#0a0a0a"></path>
<path transform="translate(1163,1111)" d="m0 0 7 6 90 90v1h-97z" fill="#919497"></path>
<path transform="translate(1064,1111)" d="m0 0h1v97h-97l6-7z" fill="#0a0a0a"></path>
<path transform="translate(671,1111)" d="m0 0h1v97h-97l6-7z" fill="#0a0a0a"></path>
<path transform="translate(378,1111)" d="m0 0 7 6 90 90v1h-97z" fill="#919497"></path>
<path transform="translate(279,1111)" d="m0 0h1v97h-97l6-7z" fill="#0a0a0a"></path>
<path transform="translate(1753,718)" d="m0 0h97v97l-7-6-90-90z" fill="#0a0a0a"></path>
<path transform="translate(968,718)" d="m0 0h97v97l-7-6-90-90z" fill="#0a0a0a"></path>
<path transform="translate(183,718)" d="m0 0h97v97l-7-6-90-90z" fill="#0a0a0a"></path>
<path transform="translate(1556,521)" d="m0 0h97l-6 7-90 90h-1z" fill="#0a0a0a"></path>
<path transform="translate(1360,521)" d="m0 0h97v97l-7-6-90-90z" fill="#919497"></path>
<path transform="translate(771,521)" d="m0 0h97l-6 7-90 90h-1z" fill="#0a0a0a"></path>
<path transform="translate(575,521)" d="m0 0h97v97l-7-6-90-90z" fill="#919497"></path>
<path transform="translate(1849,325)" d="m0 0h1v97h-97l6-7z" fill="#0a0a0a"></path>
<path transform="translate(1456,325)" d="m0 0h1v97h-97l6-7z" fill="#0a0a0a"></path>
<path transform="translate(1163,325)" d="m0 0 7 6 90 90v1h-97z" fill="#919497"></path>
<path transform="translate(1064,325)" d="m0 0h1v97h-97l6-7z" fill="#0a0a0a"></path>
<path transform="translate(671,325)" d="m0 0h1v97h-97l6-7z" fill="#0a0a0a"></path>
<path transform="translate(378,325)" d="m0 0 7 6 90 90v1h-97z" fill="#919497"></path>
<path transform="translate(279,325)" d="m0 0h1v97h-97l6-7z" fill="#0a0a0a"></path>
<path transform="translate(0,521)" d="m0 0h83l-5 6-15 15-6 5-7 8-5 5-5 4-7 8-32 32h-1z" fill="#0a0a0a"></path>
<path transform="translate(0,1307)" d="m0 0h83l-5 6-10 10-5 4-5 5-4 5-10 10-5 4-7 8-31 31h-1z" fill="#0a0a0a"></path>
<path transform="translate(1752)" d="m0 0h98v30h-98z" fill="#919497"></path>
<path transform="translate(967)" d="m0 0h98v30h-98z" fill="#919497"></path>
<path transform="translate(182)" d="m0 0h98v30h-98z" fill="#919497"></path>
<path transform="translate(83)" d="m0 0h50v78l-4-2-45-45-1-2z" fill="#0a0a0a"></path>
<path transform="translate(1654)" d="m0 0h49v78l-4-2-45-45z" fill="#0a0a0a"></path>
<path transform="translate(869)" d="m0 0h49v78l-4-2-45-45z" fill="#0a0a0a"></path>
<path transform="translate(378,1699)" d="m0 0h98v1l-96 1 47 47-2 4-46 46h-1z" fill="#919497"></path>
<path transform="translate(378,913)" d="m0 0h98v1l-96 1 47 47-2 4-46 46h-1z" fill="#919497"></path>
<path transform="translate(0,1699)" d="m0 0h83l1 1v98l-7-6-42-42 2-4 44-44 1-2h-82z" fill="#919497"></path>
<path transform="translate(0,913)" d="m0 0h83l1 1v98l-7-6-42-42 2-4 44-44 1-2h-82z" fill="#919497"></path>
<path transform="translate(0,127)" d="m0 0h83l1 1v98l-7-6-42-42 2-4 44-44 1-2h-82z" fill="#919497"></path>
<path transform="translate(1359)" d="m0 0h69l29 29v1h-98z" fill="#0a0a0a"></path>
<path transform="translate(574)" d="m0 0h69l29 29v1h-98z" fill="#0a0a0a"></path>
<path transform="translate(1948,1306)" d="m0 0h98v99l-49-49 6-7 41-41-96-1z" fill="#919497"></path>
<path transform="translate(1163,1306)" d="m0 0h98v99l-49-49 6-7 41-41-96-1z" fill="#919497"></path>
<path transform="translate(378,1306)" d="m0 0h98v99l-49-49 6-7 41-41-96-1z" fill="#919497"></path>
<path transform="translate(1948,520)" d="m0 0h98v99l-49-49 6-7 41-41-96-1z" fill="#919497"></path>
<path transform="translate(1163,520)" d="m0 0h98v99l-49-49 6-7 41-41-96-1z" fill="#919497"></path>
<path transform="translate(378,520)" d="m0 0h98v99l-49-49 6-7 41-41-96-1z" fill="#919497"></path>
<path transform="translate(1555,1307)" d="m0 0h1l1 96 47-47 7 6 42 42v1h-98z" fill="#919497"></path>
<path transform="translate(770,1307)" d="m0 0h1l1 96 47-47 7 6 42 42v1h-98z" fill="#919497"></path>
<path transform="translate(1555,521)" d="m0 0h1l1 96 47-47 7 6 42 42v1h-98z" fill="#919497"></path>
<path transform="translate(770,521)" d="m0 0h1l1 96 47-47 7 6 42 42v1h-98z" fill="#919497"></path>
<path transform="translate(1948,1700)" d="m0 0 7 6 42 42-2 4-46 46h-1z" fill="#919497"></path>
<path transform="translate(1653,1700)" d="m0 0h1v98l-7-6-42-42 2-4z" fill="#919497"></path>
<path transform="translate(1163,1700)" d="m0 0 7 6 42 42-2 4-46 46h-1z" fill="#919497"></path>
<path transform="translate(868,1700)" d="m0 0h1v98l-7-6-42-42 2-4z" fill="#919497"></path>
<path transform="translate(1948,914)" d="m0 0 7 6 42 42-2 4-46 46h-1z" fill="#919497"></path>
<path transform="translate(1653,914)" d="m0 0h1v98l-7-6-42-42 2-4z" fill="#919497"></path>
<path transform="translate(1163,914)" d="m0 0 7 6 42 42-2 4-46 46h-1z" fill="#919497"></path>
<path transform="translate(868,914)" d="m0 0h1v98l-7-6-42-42 2-4z" fill="#919497"></path>
<path transform="translate(1948,128)" d="m0 0 7 6 42 42-2 4-46 46h-1z" fill="#919497"></path>
<path transform="translate(1653,128)" d="m0 0h1v98l-7-6-42-42 2-4z" fill="#919497"></path>
<path transform="translate(1163,128)" d="m0 0 7 6 42 42-2 4-46 46h-1z" fill="#919497"></path>
<path transform="translate(868,128)" d="m0 0h1v98l-7-6-42-42 2-4z" fill="#919497"></path>
<path transform="translate(378,128)" d="m0 0 7 6 42 42-2 4-46 46h-1z" fill="#919497"></path>
<path transform="translate(671,1504)" d="m0 0h1v97l-7-6-42-42 47-47z" fill="#919497"></path>
<path transform="translate(1456,1505)" d="m0 0h1v96l-7-6-42-42 5-5z" fill="#919497"></path>
<path transform="translate(1456,719)" d="m0 0h1v96l-7-6-42-42 5-5z" fill="#919497"></path>
<path transform="translate(671,719)" d="m0 0h1v96l-7-6-42-42 5-5z" fill="#919497"></path>
<path transform="translate(34,1356)" d="m0 0 7 6 42 42v1h-83v-15z" fill="#919497"></path>
<path transform="translate(34,570)" d="m0 0 7 6 42 42v1h-83v-15z" fill="#919497"></path>
<path transform="translate(1703,2044)" d="m0 0h196v4h-196z" fill="#919497"></path>
<path transform="translate(1114,2044)" d="m0 0h196v4h-196z" fill="none"></path>
<path transform="translate(918,2044)" d="m0 0h196v4h-196z" fill="#919497"></path>
<path transform="translate(329,2044)" d="m0 0h196v4h-196z" fill="none"></path>
<path transform="translate(133,2044)" d="m0 0h196v4h-196z" fill="#919497"></path>
<path transform="translate(1311,2044)" d="m0 0h195v4h-192z" fill="#0a0a0a"></path>
<path transform="translate(526,2044)" d="m0 0h195v4h-192z" fill="#0a0a0a"></path>
<path transform="translate(1899,2044)" d="m0 0h148v4h-148z" fill="none"></path>
<path transform="translate(1555)" d="m0 0h30l-6 7-22 22h-2z" fill="#0a0a0a"></path>
<path transform="translate(770)" d="m0 0h30l-6 7-22 22h-2z" fill="#0a0a0a"></path>
<path transform="translate(1821)" d="m0 0h29v29l-7-6-22-22z" fill="#0a0a0a"></path>
<path transform="translate(1428)" d="m0 0h29v29l-7-6-22-22z" fill="#919497"></path>
<path transform="translate(1036)" d="m0 0h29v29l-7-6-22-22z" fill="#0a0a0a"></path>
<path transform="translate(643)" d="m0 0h29v29l-7-6-22-22z" fill="#919497"></path>
<path transform="translate(251)" d="m0 0h29v29l-7-6-22-22z" fill="#0a0a0a"></path>
<path transform="translate(0)" d="m0 0h15l-6 7-8 8h-1z" fill="#0a0a0a"></path>
</svg>