<?xml version="1.0" encoding="UTF-8"?>
<svg xmlns="http://www.w3.org/2000/svg" viewBox="0 0 1000 1000" shape-rendering="crispEdges" preserveAspectRatio="xMidYMid meet">
<g transform="translate(0,0)"><rect width="100" height="100" fill="#FAFAF7"></rect></g><g transform="translate(100,0)"><rect width="100" height="100" fill="#FAFAF7"></rect></g><g transform="translate(200,0)"><rect width="100" height="100" fill="#ABAAA5"></rect></g><g transform="translate(300,0)"><rect width="100" height="100" fill="#FAFAF7"></rect></g><g transform="translate(400,0)"><rect width="100" height="100" fill="#FAFAF7"></rect><polygon points="0,0 100,0 100,100" fill="#0A0A0A"></polygon></g><g transform="translate(500,0)"><rect width="100" height="100" fill="#FAFAF7"></rect></g><g transform="translate(600,0)"><rect width="100" height="100" fill="#ABAAA5"></rect></g><g transform="translate(700,0)"><rect width="100" height="100" fill="#FAFAF7"></rect></g><g transform="translate(800,0)"><rect width="100" height="100" fill="#FAFAF7"></rect><rect x="22" y="22" width="56" height="56" fill="#0A0A0A"></rect></g><g transform="translate(900,0)"><rect width="100" height="100" fill="#FAFAF7"></rect></g><g transform="translate(0,100)"><rect width="100" height="100" fill="#FAFAF7"></rect></g><g transform="translate(100,100)"><rect width="100" height="100" fill="#FAFAF7"></rect><rect x="22" y="22" width="56" height="56" fill="#0A0A0A"></rect></g><g transform="translate(200,100)"><rect width="100" height="100" fill="#FAFAF7"></rect></g><g transform="translate(300,100)"><rect width="100" height="100" fill="#ABAAA5"></rect></g><g transform="translate(400,100)"><rect width="100" height="100" fill="#0A0A0A"></rect></g><g transform="translate(500,100)"><rect width="100" height="100" fill="#FAFAF7"></rect><polygon points="0,0 100,0 0,100" fill="#0A0A0A"></polygon></g><g transform="translate(600,100)"><rect width="100" height="100" fill="#FAFAF7"></rect></g><g transform="translate(700,100)"><rect width="100" height="100" fill="#ABAAA5"></rect></g><g transform="translate(800,100)"><rect width="100" height="100" fill="#FAFAF7"></rect></g><g transform="translate(900,100)"><rect width="100" height="100" fill="#FAFAF7"></rect><polygon points="0,0 100,0 100,100" fill="#0A0A0A"></polygon></g><g transform="translate(0,200)"><rect width="100" height="100" fill="#ABAAA5"></rect></g><g transform="translate(100,200)"><rect width="100" height="100" fill="#FAFAF7"></rect></g><g transform="translate(200,200)"><rect width="100" height="100" fill="#0A0A0A"></rect><rect x="22" y="22" width="56" height="56" fill="#FAFAF7"></rect></g><g transform="translate(300,200)"><rect width="100" height="100" fill="#FAFAF7"></rect></g><g transform="translate(400,200)"><rect width="100" height="100" fill="#FAFAF7"></rect></g><g transform="translate(500,200)"><rect width="100" height="100" fill="#ABAAA5"></rect></g><g transform="translate(600,200)"><rect width="100" height="100" fill="#FAFAF7"></rect><rect x="22" y="22" width="56" height="56" fill="#0A0A0A"></rect></g><g transform="translate(700,200)"><rect width="100" height="100" fill="#FAFAF7"></rect></g><g transform="translate(800,200)"><rect width="100" height="100" fill="#ABAAA5"></rect></g><g transform="translate(900,200)"><rect width="100" height="100" fill="#0A0A0A"></rect></g><g transform="translate(0,300)"><rect width="100" height="100" fill="#FAFAF7"></rect></g><g transform="translate(100,300)"><rect width="100" height="100" fill="#ABAAA5"></rect></g><g transform="translate(200,300)"><rect width="100" height="100" fill="#FAFAF7"></rect></g><g transform="translate(300,300)"><rect width="100" height="100" fill="#FAFAF7"></rect><polygon points="0,0 100,0 100,100" fill="#0A0A0A"></polygon></g><g transform="translate(400,300)"><rect width="100" height="100" fill="#FAFAF7"></rect></g><g transform="translate(500,300)"><rect width="100" height="100" fill="#FAFAF7"></rect><rect x="22" y="22" width="56" height="56" fill="#0A0A0A"></rect></g><g transform="translate(600,300)"><rect width="100" height="100" fill="#ABAAA5"></rect></g><g transform="translate(700,300)"><rect width="100" height="100" fill="#0A0A0A"></rect><rect x="22" y="22" width="56" height="56" fill="#FAFAF7"></rect></g><g transform="translate(800,300)"><rect width="100" height="100" fill="#FAFAF7"></rect></g><g transform="translate(900,300)"><rect width="100" height="100" fill="#ABAAA5"></rect></g><g transform="translate(0,400)"><rect width="100" height="100" fill="#FAFAF7"></rect><rect x="22" y="22" width="56" height="56" fill="#0A0A0A"></rect></g><g transform="translate(100,400)"><rect width="100" height="100" fill="#FAFAF7"></rect></g><g transform="translate(200,400)"><rect width="100" height="100" fill="#ABAAA5"></rect></g><g transform="translate(300,400)"><rect width="100" height="100" fill="#0A0A0A"></rect><rect x="22" y="22" width="56" height="56" fill="#FAFAF7"></rect></g><g transform="translate(400,400)"><rect width="100" height="100" fill="#FAFAF7"></rect></g><g transform="translate(500,400)"><rect width="100" height="100" fill="#FAFAF7"></rect></g><g transform="translate(600,400)"><rect width="100" height="100" fill="#ABAAA5"></rect></g><g transform="translate(700,400)"><rect width="100" height="100" fill="#FAFAF7"></rect></g><g transform="translate(800,400)"><rect width="100" height="100" fill="#FAFAF7"></rect><rect x="22" y="22" width="56" height="56" fill="#0A0A0A"></rect></g><g transform="translate(900,400)"><rect width="100" height="100" fill="#FAFAF7"></rect></g><g transform="translate(0,500)"><rect width="100" height="100" fill="#FAFAF7"></rect></g><g transform="translate(100,500)"><rect width="100" height="100" fill="#0A0A0A"></rect><rect x="22" y="22" width="56" height="56" fill="#FAFAF7"></rect></g><g transform="translate(200,500)"><rect width="100" height="100" fill="#FAFAF7"></rect></g><g transform="translate(300,500)"><rect width="100" height="100" fill="#ABAAA5"></rect></g><g transform="translate(400,500)"><rect width="100" height="100" fill="#FAFAF7"></rect><rect x="22" y="22" width="56" height="56" fill="#0A0A0A"></rect></g><g transform="translate(500,500)"><rect width="100" height="100" fill="#ABAAA5"></rect></g><g transform="translate(600,500)"><rect width="100" height="100" fill="#FAFAF7"></rect></g><g transform="translate(700,500)"><rect width="100" height="100" fill="#0A0A0A"></rect><rect x="22" y="22" width="56" height="56" fill="#FAFAF7"></rect></g><g transform="translate(800,500)"><rect width="100" height="100" fill="#ABAAA5"></rect></g><g transform="translate(900,500)"><rect width="100" height="100" fill="#FAFAF7"></rect><rect x="22" y="22" width="56" height="56" fill="#0A0A0A"></rect></g><g transform="translate(0,600)"><rect width="100" height="100" fill="#ABAAA5"></rect></g><g transform="translate(100,600)"><rect width="100" height="100" fill="#FAFAF7"></rect></g><g transform="translate(200,600)"><rect width="100" height="100" fill="#FAFAF7"></rect><rect x="22" y="22" width="56" height="56" fill="#0A0A0A"></rect></g><g transform="translate(300,600)"><rect width="100" height="100" fill="#FAFAF7"></rect></g><g transform="translate(400,600)"><rect width="100" height="100" fill="#ABAAA5"></rect></g><g transform="translate(500,600)"><rect width="100" height="100" fill="#0A0A0A"></rect><rect x="22" y="22" width="56" height="56" fill="#FAFAF7"></rect></g><g transform="translate(600,600)"><rect width="100" height="100" fill="#FAFAF7"></rect><rect x="22" y="22" width="56" height="56" fill="#0A0A0A"></rect></g><g transform="translate(700,600)"><rect width="100" height="100" fill="#ABAAA5"></rect></g><g transform="translate(800,600)"><rect width="100" height="100" fill="#0A0A0A"></rect><rect x="22" y="22" width="56" height="56" fill="#FAFAF7"></rect></g><g transform="translate(900,600)"><rect width="100" height="100" fill="#ABAAA5"></rect></g><g transform="translate(0,700)"><rect width="100" height="100" fill="#FAFAF7"></rect></g><g transform="translate(100,700)"><rect width="100" height="100" fill="#FAFAF7"></rect><polygon points="0,0 100,0 100,100" fill="#0A0A0A"></polygon></g><g transform="translate(200,700)"><rect width="100" height="100" fill="#ABAAA5"></rect></g><g transform="translate(300,700)"><rect width="100" height="100" fill="#0A0A0A"></rect><rect x="22" y="22" width="56" height="56" fill="#FAFAF7"></rect></g><g transform="translate(400,700)"><rect width="100" height="100" fill="#0A0A0A"></rect></g><g transform="translate(500,700)"><rect width="100" height="100" fill="#ABAAA5"></rect></g><g transform="translate(600,700)"><rect width="100" height="100" fill="#0A0A0A"></rect><rect x="22" y="22" width="56" height="56" fill="#FAFAF7"></rect></g><g transform="translate(700,700)"><rect width="100" height="100" fill="#FAFAF7"></rect><rect x="22" y="22" width="56" height="56" fill="#0A0A0A"></rect></g><g transform="translate(800,700)"><rect width="100" height="100" fill="#ABAAA5"></rect></g><g transform="translate(900,700)"><rect width="100" height="100" fill="#0A0A0A"></rect><rect x="22" y="22" width="56" height="56" fill="#FAFAF7"></rect></g><g transform="translate(0,800)"><rect width="100" height="100" fill="#FAFAF7"></rect><rect x="22" y="22" width="56" height="56" fill="#0A0A0A"></rect></g><g transform="translate(100,800)"><rect width="100" height="100" fill="#ABAAA5"></rect></g><g transform="translate(200,800)"><rect width="100" height="100" fill="#0A0A0A"></rect><rect x="22" y="22" width="56" height="56" fill="#FAFAF7"></rect></g><g transform="translate(300,800)"><rect width="100" height="100" fill="#ABAAA5"></rect></g><g transform="translate(400,800)"><rect width="100" height="100" fill="#FAFAF7"></rect><rect x="22" y="22" width="56" height="56" fill="#0A0A0A"></rect></g><g transform="translate(500,800)"><rect width="100" height="100" fill="#0A0A0A"></rect><rect x="22" y="22" width="56" height="56" fill="#FAFAF7"></rect></g><g transform="translate(600,800)"><rect width="100" height="100" fill="#ABAAA5"></rect></g><g transform="translate(700,800)"><rect width="100" height="100" fill="#0A0A0A"></rect><rect x="22" y="22" width="56" height="56" fill="#FAFAF7"></rect></g><g transform="translate(800,800)"><rect width="100" height="100" fill="#FAFAF7"></rect><rect x="22" y="22" width="56" height="56" fill="#0A0A0A"></rect></g><g transform="translate(900,800)"><rect width="100" height="100" fill="#ABAAA5"></rect></g><g transform="translate(0,900)"><rect width="100" height="100" fill="#ABAAA5"></rect></g><g transform="translate(100,900)"><rect width="100" height="100" fill="#FAFAF7"></rect><rect x="22" y="22" width="56" height="56" fill="#0A0A0A"></rect></g><g transform="translate(200,900)"><rect width="100" height="100" fill="#ABAAA5"></rect></g><g transform="translate(300,900)"><rect width="100" height="100" fill="#FAFAF7"></rect><polygon points="100,0 100,100 0,100" fill="#0A0A0A"></polygon></g><g transform="translate(400,900)"><rect width="100" height="100" fill="#ABAAA5"></rect></g><g transform="translate(500,900)"><rect width="100" height="100" fill="#FAFAF7"></rect><rect x="22" y="22" width="56" height="56" fill="#0A0A0A"></rect></g><g transform="translate(600,900)"><rect width="100" height="100" fill="#0A0A0A"></rect><rect x="22" y="22" width="56" height="56" fill="#FAFAF7"></rect></g><g transform="translate(700,900)"><rect width="100" height="100" fill="#ABAAA5"></rect></g><g transform="translate(800,900)"><rect width="100" height="100" fill="#0A0A0A"></rect><rect x="22" y="22" width="56" height="56" fill="#FAFAF7"></rect></g><g transform="translate(900,900)"><rect width="100" height="100" fill="#0A0A0A"></rect></g>
</svg>